<svg width="143" height="148" viewBox="0 0 143 148" fill="none" xmlns="http://www.w3.org/2000/svg" class="css-0"><path d="M127.588 64.6772L127.587 64.6784L126.174 66.4053C125.798 66.864 125.257 67.1513 124.657 67.2032C124.056 67.2552 123.441 67.0667 122.94 66.6698C105.45 52.8113 81.7753 53.6106 69.0787 69.1122L69.0786 69.1123C56.7865 84.124 59.1634 107.579 73.7269 123.432L73.728 123.433C74.5665 124.34 75.0628 125.517 75.1262 126.732C75.1894 127.944 74.8178 129.109 74.0887 130.006L74.0442 130.058L74.0441 130.058L74.0362 130.068C73.8362 130.313 73.5878 130.511 73.3053 130.649C73.0227 130.788 72.7112 130.865 72.3893 130.875C72.0673 130.884 71.7417 130.825 71.4328 130.701C71.1241 130.576 70.8393 130.389 70.5961 130.15C51.5078 111.255 48.0666 82.0701 63.0655 63.7544C78.0639 45.4393 106.241 44.4135 127.127 61.1143C127.392 61.3273 127.614 61.5916 127.781 61.8905L128.205 61.6363L127.781 61.8905C127.948 62.1898 128.055 62.5168 128.096 62.8508C128.138 63.1848 128.113 63.5186 128.026 63.8321C127.938 64.1455 127.789 64.4329 127.588 64.6772Z" fill="#6EB171" stroke="#13120F"></path><path d="M129.686 56.5569L129.686 56.5573L128.012 58.6002L128.011 58.6012C127.655 59.0374 127.144 59.3112 126.581 59.3622C126.018 59.4133 125.445 59.237 124.983 58.8653C103.676 41.5656 74.3762 42.6173 58.6182 61.8492C42.8607 81.0805 46.4493 111.401 66.179 130.623C66.6038 131.04 66.8613 131.602 66.9015 132.191C66.9417 132.779 66.7624 133.349 66.4049 133.783L66.4045 133.784L64.73 135.827L64.7297 135.827C64.5435 136.055 64.3131 136.24 64.0521 136.371C63.791 136.502 63.5041 136.576 63.2082 136.589C62.9123 136.601 62.6136 136.551 62.3303 136.442C62.0471 136.332 61.7857 136.165 61.562 135.95C50.7349 125.481 43.7526 111.912 41.7962 97.4515L41.7962 97.4514C39.712 82.0715 43.557 67.5318 52.603 56.4937C61.6489 45.4557 74.8207 39.2269 89.7261 38.9588C103.742 38.7127 117.692 43.773 129.306 53.2752C129.545 53.4717 129.745 53.7146 129.893 53.9891C130.042 54.2637 130.136 54.5636 130.17 54.8705C130.205 55.1773 130.179 55.4846 130.096 55.7741C130.013 56.0635 129.873 56.3296 129.686 56.5569Z" fill="#FF8AAE" stroke="#13120F"></path><path d="M131.023 49.1929L131.023 49.1931L130.02 50.4185L130.019 50.4189C129.597 50.9366 128.99 51.2607 128.322 51.3201C127.654 51.3795 126.975 51.169 126.43 50.7278C114.638 41.1244 100.478 35.9985 86.2308 36.2546C71.0262 36.5263 57.5433 42.8884 48.2776 54.1951C39.0119 65.5018 35.0925 80.3773 37.2185 96.0666C39.2101 110.765 46.2847 124.537 57.232 135.171C57.735 135.662 58.0408 136.327 58.0896 137.024C58.1384 137.72 57.9272 138.395 57.504 138.911L56.5004 140.136C56.277 140.408 56.0008 140.629 55.688 140.785C55.3751 140.942 55.0316 141.03 54.6778 141.044C54.324 141.058 53.9672 140.998 53.6292 140.865C53.2912 140.733 52.9796 140.532 52.7135 140.274L52.7133 140.274C40.2931 128.251 32.2808 112.674 30.0319 96.0681L29.5465 96.137L30.0319 96.0681C27.6388 78.3987 32.0563 61.6876 42.4519 48.9996C52.8475 36.3118 67.9921 29.1492 85.1151 28.8473L85.1046 28.3377L85.1151 28.8473C101.204 28.5627 117.221 34.3697 130.56 45.2717L130.56 45.272C130.846 45.5054 131.086 45.7947 131.264 46.1219C131.443 46.4492 131.556 46.8071 131.598 47.1738C131.64 47.5405 131.61 47.9081 131.511 48.2548C131.412 48.6014 131.246 48.9204 131.023 49.1929Z" fill="#6EB171" stroke="#13120F"></path></svg>