<svg xmlns:xlink="http://www.w3.org/1999/xlink" xmlns="http://www.w3.org/2000/svg" width="92" height="92" viewBox="0 0 92 92" fill="none">
<path d="M55.2011 21.464H50.5999V32.196H55.2011V21.464Z" fill="#13120F"/>
<path d="M24.5336 51.1421V56.8096C24.5336 57.8059 24.7299 58.7924 25.1112 59.7128C25.4926 60.6332 26.0516 61.4695 26.7563 62.1738C27.4609 62.8782 28.2974 63.4368 29.218 63.8178C30.1385 64.1988 31.1252 64.3948 32.1215 64.3944H35.3452C36.3416 64.3948 37.3282 64.1988 38.2488 63.8178C39.1694 63.4368 40.0059 62.8782 40.7105 62.1738C41.4151 61.4695 41.9741 60.6332 42.3555 59.7128C42.7368 58.7924 42.9331 57.8059 42.9331 56.8096V51.1421H24.5336Z" fill="#ECD6C4"/>
<path d="M60.948 48.9852C59.6896 51.7525 57.6613 54.0991 55.1052 55.7448C52.5492 57.3905 49.5735 58.2657 46.5334 58.2661H42.775C42.4384 59.9923 41.5121 61.5478 40.1548 62.6663C38.7974 63.7848 37.0935 64.3967 35.3346 64.3971H32.1109C30.4089 64.3955 28.7572 63.8205 27.4221 62.765C26.087 61.7095 25.1464 60.2351 24.7522 58.5795C22.632 59.1062 18.2178 60.2492 13.7904 61.7267C13.024 61.99 12.2549 62.2534 11.5017 62.5167C9.71432 63.1534 7.96216 63.8848 6.25262 64.7079C5.63368 65.016 5.05424 65.3268 4.53012 65.6428C2.68649 66.7437 1.52238 67.8814 1.52238 68.9928V90.4594H59.7892V78.192L66.1312 68.6794L60.948 48.9852Z" fill="#FF8AAE"/>
<path d="M79.7321 79.7274H68.9995V84.3283H79.7321V79.7274Z" fill="#D1EADC"/>
<path d="M17.9544 45.996C18.5093 47.0515 19.2643 47.9889 20.1773 48.7561L27.3886 52.7065C28.5335 53.3335 29.8178 53.6623 31.1232 53.6625H36.3434C37.6488 53.6623 38.9331 53.3335 40.078 52.7065L47.2893 48.7561C48.3257 47.8927 49.1597 46.8119 49.7318 45.5904C50.3039 44.3688 50.6003 43.0363 50.5999 41.6874V22.9888H26.0664L18.3995 27.5897H16.8666V41.6795C16.8697 43.1858 17.2433 44.6682 17.9544 45.996Z" fill="#F4ECE9"/>
<path d="M16.8666 41.6875V27.5977H13.8036C12.1768 27.5977 10.6165 28.2439 9.46619 29.3942C8.31583 30.5445 7.66956 32.1046 7.66956 33.7314V39.8624C7.66921 40.668 7.82766 41.4657 8.1358 42.2101C8.44394 42.9544 8.89575 43.6307 9.46542 44.2003C10.0351 44.77 10.7114 45.2218 11.4558 45.5299C12.2002 45.838 12.998 45.9964 13.8036 45.9961H17.9571C17.2463 44.6708 16.8718 43.1913 16.8666 41.6875Z" fill="#E2A127"/>
<path d="M35.2661 75.1292H19.9324V90.462H35.2661V75.1292Z" fill="#E2A127"/>
<path d="M26.0665 18.3985C26.0665 15.5522 27.1972 12.8225 29.21 10.8098C31.2227 8.79721 33.9526 7.66652 36.7991 7.66652H50.6C50.6 4.27706 46.6494 1.53284 39.8674 1.53284H27.5993C25.1596 1.53354 22.82 2.50296 21.0949 4.228C19.3697 5.95303 18.4003 8.29248 18.3996 10.732V27.5872L26.0665 22.9863V18.3985Z" fill="#DF6845"/>
<path d="M26.0665 35.2641C26.3697 35.2641 26.666 35.1742 26.9181 35.0058C27.1702 34.8374 27.3666 34.598 27.4827 34.3179C27.5987 34.0379 27.629 33.7297 27.5699 33.4323C27.5107 33.135 27.3647 32.8619 27.1504 32.6476C26.936 32.4332 26.6628 32.2872 26.3655 32.2281C26.0682 32.1689 25.76 32.1993 25.4799 32.3153C25.1998 32.4313 24.9604 32.6277 24.792 32.8798C24.6236 33.1319 24.5336 33.4282 24.5336 33.7314C24.5336 34.1379 24.6951 34.5278 24.9826 34.8152C25.27 35.1027 25.66 35.2641 26.0665 35.2641Z" fill="#F4ECE9"/>
<path d="M41.4002 35.2641C41.7034 35.2641 41.9997 35.1742 42.2518 35.0058C42.5039 34.8374 42.7004 34.598 42.8164 34.3179C42.9324 34.0379 42.9628 33.7297 42.9036 33.4323C42.8445 33.135 42.6984 32.8619 42.4841 32.6476C42.2697 32.4332 41.9966 32.2872 41.6993 32.2281C41.4019 32.1689 41.0937 32.1993 40.8136 32.3153C40.5335 32.4313 40.2941 32.6277 40.1257 32.8798C39.9573 33.1319 39.8673 33.4282 39.8673 33.7314C39.8673 34.1379 40.0288 34.5278 40.3163 34.8152C40.6038 35.1027 40.9937 35.2641 41.4002 35.2641Z" fill="#F4ECE9"/>
<path d="M42.9331 12.2647C42.9334 13.6741 42.656 15.0698 42.1168 16.372C41.5775 17.6742 40.787 18.8575 39.7903 19.8541C38.7936 20.8507 37.6103 21.6412 36.308 22.1804C35.0057 22.7196 33.61 22.997 32.2005 22.9967H41.4002C42.8097 22.997 44.2055 22.7196 45.5078 22.1804C46.8101 21.6412 47.9933 20.8507 48.99 19.8541C49.9867 18.8575 50.7772 17.6742 51.3165 16.372C51.8557 15.0698 52.1331 13.6741 52.1328 12.2647V7.66638H42.9331V12.2647Z" fill="#DF6845"/>
<path d="M42.9331 12.2647V7.66638H36.799C33.9526 7.66638 31.2227 8.79708 29.2099 10.8097C27.1972 12.8223 26.0664 15.5521 26.0664 18.3984V22.9967H32.2005C33.61 22.997 35.0057 22.7196 36.308 22.1804C37.6103 21.6412 38.7936 20.8507 39.7903 19.8541C40.787 18.8575 41.5775 17.6742 42.1168 16.372C42.656 15.0698 42.9334 13.6741 42.9331 12.2647Z" fill="#DF6845"/>
<path d="M41.4003 22.9967H50.6C52.1931 22.993 53.7652 22.633 55.2012 21.9432C57.035 21.0741 58.5846 19.7026 59.6699 17.988C60.7552 16.2733 61.3318 14.286 61.3326 12.2568V7.66638H52.1329V12.2647C52.1332 13.6741 51.8558 15.0698 51.3166 16.372C50.7773 17.6742 49.9868 18.8575 48.9901 19.8541C47.9934 20.8507 46.8102 21.6412 45.5079 22.1804C44.2056 22.7196 42.8098 22.997 41.4003 22.9967Z" fill="#DF6845"/>
<path d="M90.4673 84.3282H44.4659V90.4619H90.4673V84.3282Z" fill="#E2A127"/>
<path d="M80.422 25.2195C80.7179 25.5178 81.0785 25.7442 81.4758 25.8812C81.873 26.0182 82.2964 26.0621 82.7134 26.0096L76.6557 21.4745L80.422 25.2195Z" fill="#ECD6C4"/>
<path d="M87.0223 16.8104L79.7268 10.732V4.29022C79.7261 3.55868 79.435 2.85733 78.9174 2.3403C78.3998 1.82326 77.6982 1.53284 76.9666 1.53284H76.3503C75.9879 1.53249 75.629 1.60356 75.2942 1.74198C74.9593 1.8804 74.655 2.08344 74.3987 2.33953C74.1423 2.59561 73.939 2.8997 73.8002 3.23442C73.6615 3.56913 73.5901 3.9279 73.5901 4.29022V12.3359C73.5908 12.8382 73.4682 13.3329 73.2329 13.7766C72.9976 14.2203 72.6568 14.5995 72.2407 14.8806C71.8245 15.1618 71.3455 15.3364 70.846 15.3891C70.3465 15.4418 69.8418 15.371 69.376 15.1829L68.6307 14.8853C68.2818 14.7454 67.9081 14.6783 67.5324 14.6883C67.1567 14.6982 66.787 14.7849 66.446 14.943C66.1051 15.1011 65.8001 15.3274 65.5498 15.6078C65.2996 15.8881 65.1094 16.2168 64.9909 16.5734C64.8118 17.1085 64.8015 17.6857 64.9611 18.2269C65.1208 18.7681 65.4428 19.2472 65.8837 19.5994L72.0493 24.5322L60.948 48.9853L66.1365 68.69L75.1282 55.2032L81.2622 32.2065L82.8425 25.9754C83.21 25.9152 83.5613 25.7804 83.8747 25.5793C84.1882 25.3782 84.4572 25.115 84.6651 24.8061L87.5622 20.4685C87.9408 19.9 88.0951 19.2114 87.9954 18.5357C87.8957 17.86 87.549 17.2453 87.0223 16.8104Z" fill="#F4ECE9"/>
<path d="M52.1328 27.5977H50.5999V45.9961C52.6333 45.9961 54.5834 45.1884 56.0213 43.7506C57.4591 42.3129 58.2668 40.3629 58.2668 38.3296V33.7314C58.2668 32.1046 57.6206 30.5445 56.4702 29.3942C55.3198 28.2439 53.7596 27.5977 52.1328 27.5977Z" fill="#E2A127"/>
<path d="M24.5336 1.53284H21.468C19.0278 1.53284 16.6875 2.50196 14.9618 4.22707C13.2361 5.95218 12.2662 8.29202 12.2655 10.732V27.8137C12.7662 27.6772 13.2822 27.6047 13.801 27.5977H18.3996V10.7426C18.4003 8.30301 19.3697 5.96356 21.0949 4.23853C22.82 2.51349 25.1596 1.54406 27.5993 1.54337L24.5336 1.53284Z" fill="#E2A127"/>
<path d="M50.5999 22.9967H26.0664L18.3995 27.5976H16.8666V33.5338C19.8059 32.1748 23.0165 30.6552 26.0664 29.1304C35.2662 24.5321 50.5999 29.1304 50.5999 29.1304V22.9967Z" fill="#ECD6C4"/>
<path d="M4.54067 70.2437C5.06742 69.9303 5.64423 69.617 6.26316 69.3115C7.9722 68.4873 9.72443 67.7558 11.5122 67.1203C12.2655 66.8569 13.0345 66.5936 13.801 66.3302C18.2283 64.8527 22.6425 63.7098 24.7627 63.1857C25.1574 64.841 26.0981 66.3152 27.4331 67.3707C28.7681 68.4261 30.4196 69.0012 32.1215 69.0033H35.3452C37.1045 69.0032 38.809 68.3912 40.1665 67.2721C41.524 66.153 42.45 64.5966 42.7856 62.8696H46.5387C49.5788 62.8693 52.5545 61.994 55.1105 60.3483C57.6665 58.7026 59.6949 56.356 60.9533 53.5888L65.2753 69.9936L66.1418 68.6925L60.948 48.9852C59.6896 51.7525 57.6613 54.0991 55.1052 55.7448C52.5492 57.3905 49.5735 58.2657 46.5334 58.2661H42.775C42.4384 59.9923 41.5121 61.5478 40.1548 62.6663C38.7974 63.7848 37.0935 64.3967 35.3346 64.3971H32.1109C30.4089 64.3955 28.7572 63.8205 27.4221 62.765C26.087 61.7095 25.1464 60.2351 24.7522 58.5795C22.632 59.1062 18.2178 60.2492 13.7904 61.7267C13.024 61.99 12.255 62.2534 11.5017 62.5167C9.71432 63.1534 7.96216 63.8848 6.25262 64.7079C5.63368 65.016 5.05424 65.3268 4.53012 65.6428C2.68649 66.7437 1.52238 67.8814 1.52238 68.9928V73.5937C1.53292 72.4849 2.70757 71.3446 4.54067 70.2437Z" fill="#FF8AAE"/>
<path d="M26.0664 36.415C25.5356 36.415 25.0167 36.2576 24.5754 35.9628C24.134 35.6679 23.7901 35.2487 23.5869 34.7584C23.3838 34.268 23.3307 33.7284 23.4342 33.2078C23.5378 32.6873 23.7933 32.2091 24.1687 31.8337C24.544 31.4584 25.0222 31.2028 25.5428 31.0993C26.0634 30.9957 26.6031 31.0489 27.0935 31.252C27.5839 31.4551 28.003 31.7991 28.2979 32.2404C28.5928 32.6818 28.7502 33.2006 28.7502 33.7314C28.7488 34.4427 28.4656 35.1245 27.9626 35.6275C27.4596 36.1305 26.7778 36.4136 26.0664 36.415ZM26.0664 33.3469C25.9649 33.3476 25.8678 33.3884 25.7962 33.4604C25.7247 33.5325 25.6846 33.6299 25.6846 33.7314C25.6846 34.1528 26.451 34.1528 26.451 33.7314C26.4503 33.6296 26.4096 33.5322 26.3376 33.4603C26.2656 33.3883 26.1682 33.3476 26.0664 33.3469Z" fill="#13120F"/>
<path d="M41.4002 36.415C40.8698 36.4135 40.3516 36.2547 39.9113 35.9589C39.471 35.6631 39.1282 35.2434 38.9263 34.7529C38.7244 34.2624 38.6724 33.723 38.7769 33.203C38.8813 32.6829 39.1375 32.2055 39.5132 31.831C39.8888 31.4564 40.367 31.2016 40.8874 31.0987C41.4078 30.9958 41.9471 31.0494 42.437 31.2528C42.9269 31.4561 43.3456 31.8001 43.6401 32.2412C43.9347 32.6824 44.0919 33.2009 44.0919 33.7314C44.0905 34.4441 43.8063 35.127 43.3015 35.6302C42.7968 36.1335 42.113 36.4157 41.4002 36.415ZM41.4002 33.3469C41.2985 33.3475 41.201 33.3883 41.1291 33.4602C41.0571 33.5322 41.0164 33.6296 41.0157 33.7314C41.0157 34.1527 41.7847 34.1527 41.7847 33.7314C41.784 33.6296 41.7433 33.5322 41.6714 33.4602C41.5994 33.3883 41.502 33.3475 41.4002 33.3469Z" fill="#13120F"/>
<path d="M90.4672 82.7955H87.3988V79.7274H84.3331V82.7955H81.2674V79.7274C81.2667 79.3211 81.105 78.9316 80.8177 78.6443C80.5304 78.357 80.1409 78.1953 79.7346 78.1946H68.9994C68.7981 78.1946 68.5987 78.2343 68.4128 78.3113C68.2268 78.3883 68.0578 78.5012 67.9155 78.6435C67.7731 78.7859 67.6602 78.9549 67.5832 79.1408C67.5062 79.3268 67.4665 79.5261 67.4665 79.7274V82.7955H61.3325V78.6581L76.4081 56.0459C76.5024 55.9071 76.572 55.7529 76.6136 55.5903L82.7529 32.5699L84.104 27.1683C84.8509 26.8481 85.4907 26.3208 85.9476 25.6488L88.8447 21.3112C89.435 20.4307 89.6774 19.3625 89.5251 18.3136C89.3728 17.2646 88.8366 16.3094 88.0204 15.6331L81.2674 10.0077V4.29015C81.266 3.1523 80.8132 2.0615 80.0083 1.25717C79.2035 0.452837 78.1123 0.000696784 76.9744 0H76.3581C75.2206 0.00139386 74.1302 0.453845 73.3259 1.2581C72.5216 2.06236 72.0691 3.15276 72.0677 4.29015V12.3359C72.0676 12.5869 72.0061 12.834 71.8883 13.0557C71.7706 13.2774 71.6003 13.4668 71.3923 13.6074C71.1844 13.748 70.9452 13.8355 70.6956 13.8622C70.446 13.8889 70.1936 13.8541 69.9607 13.7606L69.2153 13.4604C68.258 13.0748 67.1939 13.0469 66.2178 13.3818C65.2416 13.7167 64.4188 14.392 63.9 15.2841C63.3812 16.1761 63.2011 17.2252 63.3927 18.2392C63.5843 19.2532 64.1348 20.1643 64.9433 20.8055L70.1661 24.9825L59.5468 48.3479C58.4073 50.845 56.5748 52.9624 54.2669 54.4485C51.9591 55.9345 49.273 56.7266 46.5281 56.7307H44.4553V52.0507L48.0161 50.0992C48.1029 50.0519 48.185 49.9963 48.2611 49.9333C49.1837 49.1639 49.9707 48.2452 50.5893 47.2154V47.5288C53.0277 47.5239 55.3649 46.5532 57.0892 44.8291C58.8134 43.1049 59.7842 40.7679 59.7891 38.3296V33.7313C59.7867 32.5483 59.5094 31.382 58.9792 30.3245C58.449 29.2669 57.6804 28.3469 56.7339 27.6371V22.8703C58.5969 21.796 60.1445 20.2504 61.2211 18.3889C62.2978 16.5273 62.8658 14.4152 62.868 12.2647V7.66644C62.868 7.25923 62.7062 6.8687 62.4182 6.58075C62.1303 6.29281 61.7397 6.13106 61.3325 6.13106H51.9194C51.0213 2.89698 47.1997 0 39.8778 0H21.4678C18.6213 0.0006978 15.8915 1.13153 13.8785 3.14394C11.8655 5.15635 10.734 7.88565 10.7326 10.732V26.7048C9.36623 27.3026 8.20363 28.2855 7.38695 29.5334C6.57027 30.7812 6.13484 32.24 6.13398 33.7313V39.8624C6.13586 41.6289 6.74674 43.3407 7.86361 44.7094C8.98049 46.078 10.5351 47.0199 12.2654 47.3761V60.5731C5.82321 62.8301 0 65.764 0 69.0007V90.4673C0 90.8738 0.161484 91.2636 0.448949 91.5511C0.736414 91.8385 1.12627 92 1.5328 92H90.4672C90.8737 92 91.2636 91.8385 91.551 91.5511C91.8385 91.2636 92 90.8738 92 90.4673V84.3283C92.0003 84.1269 91.961 83.9274 91.8841 83.7413C91.8072 83.5552 91.6942 83.3861 91.5518 83.2437C91.4094 83.1013 91.2403 82.9884 91.0542 82.9115C90.8681 82.8346 90.6686 82.7952 90.4672 82.7955ZM70.5322 81.2602H78.1991V82.7955H70.5322V81.2602ZM73.0264 23.3338L66.8581 18.4011C66.6139 18.2226 66.4444 17.9601 66.3822 17.6641C66.32 17.3681 66.3696 17.0596 66.5213 16.7979C66.6731 16.5363 66.9163 16.3401 67.2042 16.2471C67.492 16.1541 67.804 16.1708 68.0802 16.2942L68.8255 16.5944C69.5242 16.876 70.2813 16.9817 71.0304 16.9023C71.7795 16.8228 72.4976 16.5607 73.1218 16.139C73.7459 15.7172 74.2569 15.1486 74.6099 14.4832C74.963 13.8178 75.1472 13.0759 75.1465 12.3227V4.29015C75.1472 3.96557 75.2765 3.6545 75.506 3.42498C75.7356 3.19547 76.0467 3.06623 76.3713 3.06553H76.9875C77.3123 3.06553 77.6239 3.19455 77.8535 3.42421C78.0832 3.65387 78.2123 3.96536 78.2123 4.29015V10.732C78.2121 10.9568 78.2616 11.1789 78.3572 11.3824C78.4528 11.5859 78.5922 11.7658 78.7653 11.9092L86.0609 17.9902C86.2934 18.1834 86.446 18.4559 86.4893 18.755C86.5326 19.0541 86.4635 19.3587 86.2953 19.6099L83.3981 23.9474C83.2977 24.0984 83.165 24.2251 83.0096 24.3185C82.8542 24.4119 82.68 24.4696 82.4995 24.4875C82.3191 24.5054 82.137 24.483 81.9663 24.4219C81.7956 24.3609 81.6405 24.2627 81.5124 24.1344L77.7593 20.3815L75.5917 22.549L79.3448 26.3019C79.7914 26.7478 80.331 27.0896 80.9251 27.3027L79.8004 31.8009L73.7428 54.5553L66.6316 65.2188L62.7257 48.8351L73.4873 25.1668C73.6259 24.8536 73.6558 24.5031 73.5723 24.171C73.4888 23.8389 73.2967 23.5442 73.0264 23.3338ZM26.0664 56.8097V53.7257L26.6511 54.047C28.0242 54.7969 29.5638 55.19 31.1285 55.19H36.4539C37.9784 55.1707 39.475 54.7783 40.8128 54.047L41.3975 53.7257V56.8044C41.3975 58.4109 40.7593 59.9516 39.6232 61.0876C38.4872 62.2235 36.9464 62.8617 35.3398 62.8617H32.1161C30.5118 62.8596 28.9738 62.2212 27.8397 61.0866C26.7055 59.952 26.0678 58.4139 26.0664 56.8097ZM49.067 41.6875C49.0685 42.787 48.8325 43.8739 48.3752 44.8739C47.918 45.8738 47.2502 46.7633 46.4175 47.4814L39.3511 51.3555C38.5527 51.7908 37.6694 52.0478 36.7621 52.1087H31.1337C30.0863 52.1075 29.0559 51.844 28.1365 51.3423L21.0596 47.463C20.2269 46.7449 19.559 45.8554 19.1017 44.8554C18.6445 43.8555 18.4085 42.7686 18.41 41.669V29.1304C18.6907 29.1263 18.9645 29.0433 19.2001 28.8907V28.9118L26.5009 24.5321H49.0775V41.6875H49.067ZM50.5999 9.19921V12.2647C50.595 14.703 49.6242 17.04 47.8999 18.7642C46.1757 20.4883 43.8386 21.4591 41.4001 21.4639H40.2861C41.5985 20.3173 42.6504 18.9032 43.3713 17.3166C44.0923 15.7299 44.4654 14.0075 44.4658 12.2647V9.19921H50.5999ZM41.4001 12.2647C41.3953 14.703 40.4244 17.04 38.7002 18.7642C36.976 20.4883 34.6388 21.4591 32.2004 21.4639H27.5992V18.3984C27.604 15.9601 28.5749 13.6231 30.2991 11.899C32.0233 10.1749 34.3605 9.20408 36.799 9.19921H41.4001V12.2647ZM56.7339 38.3375C56.7322 39.7571 56.2384 41.1322 55.3365 42.2286C54.4346 43.3249 53.1804 44.0747 51.7877 44.3501C52.0142 43.4833 52.1302 42.5913 52.1327 41.6954V29.1304C53.3526 29.1318 54.5221 29.617 55.3847 30.4795C56.2473 31.342 56.7325 32.5115 56.7339 33.7313V38.3375ZM53.6656 26.2229C53.1613 26.1188 52.6477 26.0667 52.1327 26.0675V24.4268C52.6497 24.3616 53.1618 24.2622 53.6656 24.1292V26.2229ZM59.7996 12.2647C59.7947 14.703 58.8239 17.04 57.0997 18.7642C55.3755 20.4883 53.0383 21.4591 50.5999 21.4639H49.4858C50.7982 20.3173 51.8502 18.9032 52.5711 17.3166C53.292 15.7299 53.6652 14.0075 53.6656 12.2647V9.19921H59.7996V12.2647ZM27.5992 3.06553H39.8778C44.5448 3.06553 47.4683 4.45081 48.5692 6.13106H36.8095C33.5573 6.13524 30.4396 7.42911 28.1402 9.72886C25.8408 12.0286 24.5475 15.1464 24.544 18.3984V22.1224L19.9429 24.8824V10.732C19.9436 8.69892 20.7515 6.74934 22.1892 5.31175C23.6269 3.87417 25.5765 3.06623 27.6097 3.06553H27.5992ZM13.8035 10.732C13.8031 8.96514 14.4131 7.25241 15.5304 5.88368C16.6477 4.51494 18.2037 3.57427 19.935 3.2209C19.6063 3.5585 19.2993 3.91651 19.0158 4.29279C17.6267 6.15267 16.8739 8.41066 16.8692 10.732V26.0728H13.8035V10.732ZM9.20236 39.8624V33.7313C9.20375 32.5115 9.68893 31.342 10.5515 30.4795C11.4141 29.617 12.5837 29.1318 13.8035 29.1304H15.3364V41.6875C15.3414 42.6251 15.4679 43.5582 15.713 44.4633H13.8035C12.5832 44.4626 11.413 43.9777 10.5498 43.1151C9.68669 42.2525 9.20112 41.0826 9.19972 39.8624H9.20236ZM15.3364 47.5288H17.0773C17.6607 48.4319 18.3763 49.2425 19.2001 49.9333C19.2749 49.9969 19.3561 50.0525 19.4424 50.0992L23.0033 52.0507V56.8097C23.0033 57.0125 23.0191 57.2126 23.0323 57.4128C20.7567 57.979 18.065 58.7032 15.3364 59.5539V47.5288ZM3.06567 69.0007C3.06567 67.8366 6.78453 65.8746 12.2654 63.8862V88.9319H3.06567V69.0007ZM33.7332 88.9319H21.4678V76.6671H33.7332V88.9319ZM42.933 84.3336V88.9319H36.799V75.1344C36.7993 74.933 36.7599 74.7335 36.683 74.5474C36.606 74.3613 36.4932 74.1922 36.3508 74.0498C36.2084 73.9074 36.0392 73.7944 35.8531 73.7175C35.667 73.6406 35.4675 73.6012 35.2661 73.6016H19.9323C19.5258 73.6016 19.1359 73.7631 18.8484 74.0505C18.5609 74.338 18.3994 74.7279 18.3994 75.1344V88.9319H15.3338V62.8301C17.9254 61.9821 20.7751 61.1578 23.7407 60.4098C24.4449 62.0493 25.6138 63.4467 27.1032 64.4296C28.5925 65.4124 30.337 65.9376 32.1214 65.9404H35.3451C37.2392 65.9372 39.0854 65.3451 40.6279 64.2461C42.1705 63.1472 43.3332 61.5957 43.9549 59.8067H46.5386C49.2526 59.8043 51.9283 59.1672 54.3521 57.9462C56.7758 56.7253 58.8804 54.9543 60.4976 52.775L64.2981 68.711L58.5354 77.3545C58.3652 77.6057 58.2736 77.9017 58.2721 78.2051V82.8061H55.2063V79.7379H52.138V82.8061H49.0723V79.7379H46.0066V82.8061H44.4711C44.0655 82.8047 43.6758 82.9641 43.3875 83.2494C43.0992 83.5347 42.9358 83.9227 42.933 84.3283V84.3336ZM88.9343 88.9319H46.004V85.8558H88.9343V88.9319Z" fill="#13120F"/>
</svg>