<svg xmlns:xlink="http://www.w3.org/1999/xlink" xmlns="http://www.w3.org/2000/svg" width="92" height="92" viewBox="0 0 92 92" fill="none">
<path d="M70.5401 33.7478H67.6587C57.071 33.7478 46.0013 22.6838 46.0013 9.01709C46.0013 22.6733 34.9395 33.7478 24.3412 33.7478H13.8062V76.6868H23.0059V67.4852H35.2661V59.8273H56.7339V67.4957H69.0046V76.6868H78.2043V33.7478H70.5401ZM24.5335 50.6073L20.6987 46.7718C20.1241 46.1546 19.8116 45.3385 19.8269 44.4953C19.8423 43.6522 20.1844 42.8479 20.7811 42.2522C21.3778 41.6564 22.1824 41.3156 23.0254 41.3017C23.8684 41.2878 24.6839 41.6018 25.2999 42.1776L29.1347 46.0105L24.5335 50.6073ZM71.1116 46.777L67.2795 50.6073L62.6835 46.0105L66.513 42.1776C67.1279 41.5928 67.9469 41.2714 68.7954 41.2821C69.6438 41.2928 70.4544 41.6347 71.0544 42.2348C71.6544 42.8349 71.9962 43.6457 72.0068 44.4943C72.0175 45.3429 71.6963 46.162 71.1116 46.777Z" fill="#DF6845"/>
<path d="M56.7339 59.8142H35.2661V67.4827V76.6842H56.7339V67.4827V59.8142Z" fill="#FF8AAE"/>
<path d="M68.9994 67.4827H56.7339V76.6842H68.9994V67.4827Z" fill="#FF8AAE"/>
<path d="M35.2661 67.4827H23.0007V76.6842H35.2661V67.4827Z" fill="#FF8AAE"/>
<path d="M84.3332 59.0476L78.1991 50.6125V67.4826L84.3332 59.0476Z" fill="#ECD6C4"/>
<path d="M78.1991 84.3527L84.3332 75.9176L78.1991 67.4827V76.6842V84.3527Z" fill="#ECD6C4"/>
<path d="M21.2755 33.7479H24.3412C34.9316 33.7479 46.0013 22.6838 46.0013 9.01714V1.54102L16.3556 23.0105L1.53281 33.7479H21.286H21.2755Z" fill="#E2A127"/>
<path d="M75.1334 23.0051H75.6444L46.0013 1.53564V9.01177C46.0013 22.6679 57.0632 33.7425 67.6588 33.7425H90.4672L75.6444 23.0051H75.1334Z" fill="#E2A127"/>
<path d="M20.6988 42.1777C20.0892 42.7878 19.7468 43.615 19.7468 44.4775C19.7468 45.3399 20.0892 46.1671 20.6988 46.7772L24.5335 50.6075L29.1347 46.0054L25.2999 42.1777C24.9981 41.8751 24.6395 41.6351 24.2447 41.4713C23.8499 41.3075 23.4267 41.2231 22.9994 41.2231C22.572 41.2231 22.1488 41.3075 21.754 41.4713C21.3592 41.6351 21.0006 41.8751 20.6988 42.1777Z" fill="#6EB171"/>
<path d="M71.1116 46.7771C71.6963 46.1621 72.0176 45.343 72.0069 44.4944C71.9962 43.6458 71.6544 42.835 71.0545 42.2349C70.4545 41.6348 69.6438 41.2929 68.7954 41.2822C67.947 41.2716 67.128 41.5929 66.5131 42.1777L62.6836 46.0106L67.2795 50.6074L71.1116 46.7771Z" fill="#6EB171"/>
<path d="M78.2017 76.6843H13.8009V90.488H78.2017V76.6843Z" fill="#D1EADC"/>
<path d="M61.5959 56.2211L57.2607 51.8824L63.7661 47.5437L65.9337 49.7144L61.5959 56.2211Z" fill="#E2A127"/>
<path d="M34.742 51.8824L30.4042 56.2211L26.0664 49.7144L28.234 47.5437L34.742 51.8824Z" fill="#E2A127"/>
<path d="M91.892 33.2001C91.868 33.1458 91.8407 33.093 91.8104 33.042C91.7241 32.8749 91.6081 32.7249 91.468 32.5995C91.4311 32.5678 91.4048 32.5283 91.3653 32.4994L80.3772 24.528H85.8607V21.4722H76.1421L74.1457 20.026L85.4182 8.75384L83.2506 6.58582L71.6384 18.2057L69.0046 16.3011V6.13537H65.9336V14.0777L46.8994 0.292495C46.8652 0.268787 46.8283 0.258257 46.7915 0.234549C46.7546 0.21084 46.7335 0.187131 46.6966 0.168691C46.6598 0.150251 46.6387 0.15289 46.6124 0.139718C46.5431 0.110077 46.4718 0.0854192 46.399 0.0659502C46.3385 0.0487442 46.2769 0.0355377 46.2147 0.0264294C46.0764 0.0107215 45.9368 0.0107215 45.7985 0.0264294C45.7275 0.0375637 45.6572 0.0525245 45.5878 0.0712239C45.522 0.0922982 45.4588 0.113375 45.3929 0.139718C45.3271 0.166061 45.3323 0.155523 45.3034 0.171328C45.2744 0.187134 45.2402 0.218748 45.2059 0.239822C45.1717 0.260897 45.1348 0.271424 45.1006 0.295132L26.0743 14.0777V6.13537H23.0007V16.3011L20.3669 18.2057L8.74936 6.58582L6.57914 8.75384L17.8517 20.026L15.8553 21.4722H6.13404V24.528H11.6228L0.634738 32.4888C0.595232 32.5178 0.568894 32.5573 0.532021 32.5889C0.391932 32.7144 0.275902 32.8644 0.189631 33.0315C0.159122 33.082 0.1327 33.1348 0.110618 33.1895C0.0422014 33.357 0.00472267 33.5355 0 33.7164V90.4643C-5.984e-07 90.8712 0.16141 91.2614 0.4488 91.5494C0.73619 91.8373 1.12607 91.9994 1.53285 92.0001H90.4672C90.8739 91.9994 91.2638 91.8373 91.5512 91.5494C91.8386 91.2614 92 90.8712 92 90.4643V33.748C91.9974 33.5603 91.9609 33.3747 91.892 33.2001ZM19.7796 35.2759L19.9192 40.8448C19.8191 40.9291 19.7111 40.9976 19.6163 41.0924C18.7198 41.9908 18.2163 43.2082 18.2163 44.4775C18.2163 45.7467 18.7198 46.9642 19.6163 47.8625L22.3659 50.6075L21.9155 51.0553L24.0831 53.2233L25.6186 51.6902L30.2172 47.0907L31.75 45.5549L29.5824 43.3869L29.1347 43.8374L26.385 41.0871C25.9356 40.6387 25.4014 40.2843 24.8135 40.0446C24.2257 39.8048 23.596 39.6847 22.9612 39.691L22.8505 35.2706H24.3439C32.9826 35.2706 42.401 28.2634 46.004 17.9264C49.6043 28.2634 59.0226 35.2706 67.6614 35.2706H68.9783L68.8677 39.7331C68.2358 39.7209 67.6077 39.8344 67.02 40.0668C66.4323 40.2992 65.8965 40.646 65.4438 41.0871L62.6836 43.8426L62.2358 43.3921L60.0656 45.5602L61.5985 47.096L66.1997 51.6954L67.7325 53.2286L69.9001 51.0606L69.4524 50.6128L72.202 47.8625C73.0978 46.9638 73.6009 45.7465 73.6009 44.4775C73.6009 43.2084 73.0978 41.9911 72.202 41.0924C72.1072 40.9976 71.9966 40.9317 71.8991 40.8474L72.0387 35.2759H76.6689V75.1486H70.5348V67.4828C70.5348 67.0754 70.3731 66.6848 70.0851 66.3968C69.7971 66.1088 69.4066 65.947 68.9994 65.947H58.2668V59.8275C58.2668 59.4206 58.1053 59.0304 57.818 58.7425C57.5306 58.4545 57.1407 58.2924 56.7339 58.2917H35.2661C34.8593 58.2924 34.4694 58.4545 34.182 58.7425C33.8947 59.0304 33.7332 59.4206 33.7332 59.8275V65.9601H23.0007C22.7991 65.9601 22.5996 65.9999 22.4135 66.0771C22.2273 66.1543 22.0582 66.2675 21.9158 66.4101C21.7735 66.5528 21.6606 66.7221 21.5837 66.9084C21.5069 67.0947 21.4675 67.2944 21.4678 67.4959V75.1617H15.3338V35.2759H19.7796ZM21.7839 45.6919C21.4785 45.3661 21.3118 44.9342 21.319 44.4877C21.3262 44.0411 21.5068 43.6149 21.8225 43.2991C22.1382 42.9833 22.5644 42.8027 23.0108 42.7955C23.4573 42.7883 23.8891 42.955 24.2148 43.2604L26.9645 46.0107L24.5335 48.4421L21.7839 45.6919ZM67.2821 48.4421L64.8485 46.0107L67.5982 43.2604C67.9252 42.947 68.3607 42.7719 68.8137 42.7719C69.2666 42.7719 69.7021 42.947 70.0292 43.2604C70.189 43.42 70.3158 43.6095 70.4023 43.8181C70.4888 44.0267 70.5333 44.2503 70.5333 44.4762C70.5333 44.702 70.4888 44.9256 70.4023 45.1342C70.3158 45.3429 70.189 45.5323 70.0292 45.6919L67.2821 48.4421ZM82.4368 42.1777L79.7346 45.8947V38.4581L82.4368 42.1777ZM79.7346 55.3281L82.4368 59.0372L79.7346 62.7542V55.3281ZM80.0954 50.6128L84.3331 44.7831L88.5708 50.6075L84.3331 56.4345L80.0954 50.6128ZM86.2294 42.183L88.9343 38.4634V45.9L86.2294 42.183ZM84.3331 39.5751L81.2121 35.2812H87.4568L84.3331 39.5751ZM33.7332 75.1486H24.5335V69.0159H33.7332V75.1486ZM55.2011 75.1486H36.799V61.3475H55.2011V75.1486ZM58.2668 69.0159H67.4665V75.1486H58.2668V69.0159ZM3.0657 38.4581L5.77058 42.1777L3.0657 45.8947V38.4581ZM7.66688 44.7804L11.9046 50.6075L7.66688 56.4345L3.42389 50.6075L7.66688 44.7804ZM12.2654 45.8921L9.5632 42.1777L12.2654 38.4581V45.8921ZM12.2654 55.3255V62.7621L9.5632 59.0372L12.2654 55.3255ZM7.66688 39.5672L4.54324 35.2733H10.7984L7.66688 39.5672ZM3.0657 55.3255L5.77058 59.0372L3.0657 62.7542V55.3255ZM3.0657 72.185L5.77058 75.9046L3.0657 79.6216V72.185ZM3.42916 67.4696L7.66688 61.6399L11.9046 67.4696L7.66688 73.2966L3.42916 67.4696ZM12.2654 72.185V79.6216L9.5632 75.9046L12.2654 72.185ZM15.3338 78.2043H76.6662V88.9391H15.3338V78.2043ZM79.7346 76.687V72.2087L82.4368 75.9177L79.7346 79.6347V76.687ZM80.0954 67.4854L84.3331 61.6557L88.5708 67.4854L84.3331 73.3124L80.0954 67.4854ZM88.9343 72.2008V79.6374L86.2294 75.9204L88.9343 72.2008ZM86.2294 59.0372L88.9343 55.3176V62.7542L86.2294 59.0372ZM85.7343 32.1964H67.6588C58.351 32.1964 47.5342 22.0649 47.5342 9.00148V4.52318L75.1334 24.528H75.1466L85.7343 32.1964ZM16.8561 24.528L44.4553 4.53634V9.01463C44.4553 22.0781 33.6384 32.2096 24.3307 32.2096H6.26573L16.8561 24.528ZM3.06833 84.8533L7.66952 78.531L12.2681 84.8533V88.9548H3.0657L3.06833 84.8533ZM79.7372 88.9548V84.8533L84.3358 78.531L88.9369 84.8533V88.9548H79.7372Z" fill="#13120F"/>
<path d="M26.0664 0H23.0007V3.06632H26.0664V0Z" fill="#13120F"/>
<path d="M2.61596 0.451175L0.448181 2.61938L3.51547 5.68729L5.68324 3.51908L2.61596 0.451175Z" fill="#13120F"/>
<path d="M3.0657 21.4722H0V24.5385H3.0657V21.4722Z" fill="#13120F"/>
<path d="M68.9993 0H65.9336V3.06632H68.9993V0Z" fill="#13120F"/>
<path d="M89.3835 0.450883L86.3162 3.5188L88.484 5.68701L91.5513 2.6191L89.3835 0.450883Z" fill="#13120F"/>
<path d="M92 21.4722H88.9343V24.5385H92V21.4722Z" fill="#13120F"/>
<path d="M30.6649 70.5491H27.5992V73.6154H30.6649V70.5491Z" fill="#13120F"/>
<path d="M64.3982 70.5491H61.3325V73.6154H64.3982V70.5491Z" fill="#13120F"/>
</svg>