<svg width="42" height="59" viewBox="0 0 42 59" fill="none" xmlns="http://www.w3.org/2000/svg" class="css-1cs69d3"><g clip-path="url(#clip0_2003_17826)"><path d="M21.7137 57.5413L21.714 57.617L21.7129 57.5413C17.5314 57.5997 13.4335 56.2595 10.2967 53.6373L9.99534 53.9977L10.2967 53.6372C6.30858 50.3037 3.36283 45.8196 2.08159 40.9051L2.08156 40.905C0.367788 34.3382 1.65684 27.1118 5.45917 21.4152C4.89031 26.0789 7.42749 31.0622 11.7933 33.2366L12.6614 33.6689L12.5101 32.7111C10.6251 20.7721 17.1062 8.06831 27.8777 1.90096C21.8519 8.98394 21.2218 20.0914 26.89 27.556L27.5618 28.4406L27.7786 27.3512C28.8083 22.1777 32.8298 17.646 37.9598 15.7621C35.7872 19.9772 36.7444 25.1944 38.1942 29.5733C38.4519 30.3518 38.7221 31.1245 38.9916 31.895C39.5616 33.5251 40.1281 35.145 40.5655 36.7883C41.2054 39.1927 41.5474 41.5791 41.1917 43.969C40.5824 48.0617 37.9458 51.4313 34.3197 53.7989C30.6927 56.1672 26.1127 57.5054 21.7137 57.5413Z" fill="#FF8AAE" stroke="#13120F"></path><path d="M29.1779 56.5208L29.1776 56.5186C32.0585 55.4979 34.7603 53.6528 36.6008 51.4115C38.4424 49.1689 39.3862 46.5787 38.8751 44.0358C38.5757 42.5462 37.8262 41.204 36.8647 39.9024C36.2066 39.0116 35.4724 38.1679 34.7279 37.3126C34.3738 36.9057 34.0174 36.4962 33.6657 36.0776C31.8002 33.8572 30.0038 31.0115 30.278 28.0185C27.5328 30.3139 26.0632 33.792 26.5295 36.9723L26.6817 38.0106L25.7794 37.4747C20.529 34.3564 18.3369 27.883 20.2115 22.3028C15.0087 28.4375 13.8592 37.1466 17.632 43.6396L18.1206 44.4805L17.1524 44.3886C13.938 44.0833 11.1923 41.8741 10.2883 39.0782C9.28811 43.1965 10.1064 47.5791 12.5865 50.9756C14.5244 53.6272 17.4585 55.6561 20.8304 56.7594L29.1779 56.5208ZM29.1779 56.5208C26.4493 57.5022 23.4665 57.6213 20.8305 56.7594L29.1779 56.5208Z" fill="#DF6845" stroke="#13120F"></path></g><defs><clipPath id="clip0_2003_17826"><rect width="41" height="58" fill="white" transform="translate(0.835693 0.0412598)"></rect></clipPath></defs></svg>