<svg width="74" height="74" viewBox="0 0 74 74" fill="none" xmlns="http://www.w3.org/2000/svg" class="css-0"><path fill-rule="evenodd" clip-rule="evenodd" d="M5.03603 4.522C9.20334 0.420689 16.511 -0.0843898 25.313 2.92786C28.8227 4.12897 32.519 5.87546 36.2648 8.12366C31.0104 11.326 25.6944 15.4577 20.6674 20.4052C15.6405 25.3525 11.4245 30.6017 8.13873 35.8042C5.95063 32.023 4.26339 28.2993 3.11846 24.7709C0.247081 15.922 0.868732 8.62331 5.03603 4.522ZM7.54188 36.7654C-0.438654 23.2066 -2.16249 10.2035 4.33459 3.80927C10.8317 -2.58495 23.8057 -0.653757 37.2354 7.54223C50.794 -0.437949 63.7968 -2.16162 70.1908 4.33536C76.585 10.8324 74.6539 23.8061 66.4583 37.2356C74.4384 50.7941 76.1621 63.7969 69.6651 70.191C63.1681 76.585 50.1946 74.6541 36.7652 66.4586C23.2065 74.4391 10.2033 76.1629 3.80915 69.6659C-2.58501 63.1688 -0.653915 50.195 7.54188 36.7654ZM35.804 65.8618C32.0228 68.0498 28.2992 69.7371 24.7708 70.882C15.9219 73.7534 8.62319 73.1317 4.52188 68.9644C0.420567 64.7971 -0.0845111 57.4895 2.92774 48.6875C4.12881 45.1779 5.87522 41.4817 8.12332 37.736C11.3256 42.9902 15.4572 48.3059 20.4044 53.3327C25.3519 58.3598 30.6013 62.576 35.804 65.8618ZM36.7745 65.2898C31.5031 62.0123 26.1572 57.7525 21.1171 52.6313C16.0773 47.5104 11.9035 42.0975 8.71065 36.7747C11.9881 31.5035 16.2478 26.1578 21.3688 21.1179C26.49 16.0779 31.9031 11.9039 37.2261 8.711C42.4972 11.9884 47.8427 16.248 52.8825 21.3689C57.9226 26.4901 62.0966 31.9032 65.2895 37.2263C62.012 42.4976 57.7523 47.8433 52.6312 52.8833C47.5102 57.9232 42.0974 62.097 36.7745 65.2898ZM37.7359 65.8772C41.4813 68.1251 45.1773 69.8714 48.6867 71.0724C57.4887 74.0846 64.7964 73.5796 68.9637 69.4782C73.131 65.3769 73.7526 58.0783 70.8812 49.2293C69.7364 45.7012 68.0493 41.9777 65.8614 38.1968C62.5756 43.3994 58.3596 48.6487 53.3326 53.596C48.3058 58.5433 42.99 62.6749 37.7359 65.8772ZM65.8768 36.265C68.1248 32.5194 69.8712 28.8232 71.0723 25.3137C74.0845 16.5118 73.5794 9.2041 69.4781 5.0368C65.3768 0.869497 58.0781 0.247847 49.2292 3.11923C45.701 4.26408 41.9776 5.95119 38.1967 8.13909C43.399 11.4248 48.6481 15.6407 53.5953 20.6675C58.5427 25.6946 62.6745 31.0105 65.8768 36.265ZM37 24.0001C37.196 31.0971 42.903 36.8042 50 37.0001C42.903 37.1961 37.196 42.9032 37 50.0001C36.804 42.9032 31.0969 37.1961 24 37.0001C31.0969 36.8042 36.804 31.0971 37 24.0001Z" fill="#13120F"></path></svg>