<svg xmlns:xlink="http://www.w3.org/1999/xlink" xmlns="http://www.w3.org/2000/svg" width="92" height="92" viewBox="0 0 92 92" fill="none">
<g clip-path="url(#clip0_1668_12375)">
<path d="M75.9 91.08H16.1C14.0503 91.08 12.0624 90.6788 10.1916 89.8875C8.38403 89.123 6.76054 88.0283 5.36613 86.6339C3.97173 85.2395 2.87707 83.616 2.11255 81.8085C1.32124 79.9376 0.920013 77.9497 0.920013 75.9V16.1C0.920013 14.0504 1.32124 12.0625 2.11255 10.1916C2.87707 8.38406 3.97173 6.76057 5.36613 5.36616C6.76054 3.97176 8.38403 2.8771 10.1916 2.11258C12.0624 1.32127 14.0503 0.920044 16.1 0.920044H75.9C77.9497 0.920044 79.9376 1.32127 81.8085 2.11258C83.616 2.8771 85.2395 3.97176 86.6339 5.36616C88.0283 6.76057 89.123 8.38406 89.8875 10.1916C90.6788 12.0625 91.08 14.0504 91.08 16.1V75.9C91.08 77.9497 90.6788 79.9376 89.8875 81.8085C89.123 83.616 88.0283 85.2395 86.6339 86.6339C85.2395 88.0283 83.616 89.123 81.8085 89.8875C79.9376 90.6788 77.9497 91.08 75.9 91.08Z" fill="#FF8AAE"/>
<path d="M16.1 1.84C14.1741 1.84 12.3068 2.21678 10.5499 2.95987C8.85208 3.678 7.32686 4.70645 6.01665 6.01665C4.70645 7.32686 3.678 8.85208 2.95987 10.5499C2.21678 12.3068 1.84 14.1741 1.84 16.1V75.9C1.84 77.8259 2.21678 79.6932 2.95987 81.4501C3.678 83.1479 4.70645 84.6731 6.01665 85.9833C7.32686 87.2935 8.85208 88.322 10.5499 89.0401C12.3068 89.7832 14.1741 90.16 16.1 90.16H75.9C77.8259 90.16 79.6932 89.7832 81.4501 89.0401C83.1479 88.322 84.6731 87.2935 85.9833 85.9833C87.2935 84.6731 88.322 83.1479 89.0401 81.4501C89.7832 79.6932 90.16 77.8259 90.16 75.9V16.1C90.16 14.1741 89.7832 12.3068 89.0401 10.5499C88.322 8.85208 87.2935 7.32686 85.9833 6.01665C84.6731 4.70645 83.1479 3.678 81.4501 2.95987C79.6932 2.21678 77.8259 1.84 75.9 1.84H16.1ZM16.1 0H75.9C84.7918 0 92 7.20821 92 16.1V75.9C92 84.7918 84.7918 92 75.9 92H16.1C7.20821 92 0 84.7918 0 75.9V16.1C0 7.20821 7.20821 0 16.1 0Z" fill="#13120F"/>
<path d="M58.972 24.0801H33.0423C30.498 24.0869 28.0602 25.1026 26.2639 26.9044C24.4675 28.7062 23.4591 31.147 23.46 33.6913V58.6233C23.4591 61.1676 24.4675 63.6083 26.2639 65.41C28.0603 67.2118 30.498 68.2274 33.0423 68.2341H58.972C61.5161 68.227 63.9535 67.2112 65.7496 65.4094C67.5457 63.6076 68.5539 61.167 68.5529 58.6229V33.6909C68.5536 31.1469 67.5454 28.7064 65.7493 26.9048C63.9533 25.1031 61.516 24.0873 58.972 24.0801Z" fill="#13120F"/>
<path d="M52.7454 40.0504C50.7124 38.8215 48.382 38.1718 46.0064 38.1718C43.6308 38.1718 41.3004 38.8215 39.2674 40.0504H25.3386V33.6918C25.3374 31.6457 26.1477 29.6825 27.5919 28.2329C29.036 26.7834 30.9961 25.9657 33.0422 25.9592H58.9701C61.0163 25.9657 62.9764 26.7834 64.4205 28.2329C65.8647 29.6825 66.675 31.6457 66.6738 33.6918V40.0504H52.7454Z" fill="#F4ECE9"/>
<path d="M61.4137 28.7771H56.9057C56.2578 28.7772 55.6365 29.0345 55.1782 29.4924C54.7198 29.9503 54.462 30.5714 54.4612 31.2192V35.7272C54.462 36.3747 54.7195 36.9955 55.1773 37.4533C55.6352 37.9111 56.2559 38.1686 56.9034 38.1694H61.4114C62.0589 38.1686 62.6796 37.9111 63.1374 37.4533C63.5953 36.9955 63.8528 36.3747 63.8535 35.7272V31.2192C63.8529 30.5721 63.5957 29.9517 63.1384 29.4939C62.681 29.0361 62.0608 28.7783 61.4137 28.7771Z" fill="#13120F"/>
<path d="M61.9767 35.7296C61.9766 35.879 61.9172 36.0223 61.8115 36.1279C61.7059 36.2336 61.5626 36.293 61.4132 36.2931H56.9052C56.7558 36.293 56.6125 36.2336 56.5069 36.1279C56.4012 36.0223 56.3418 35.879 56.3417 35.7296V31.2216C56.3413 31.0721 56.4003 30.9286 56.5057 30.8226C56.6111 30.7166 56.7543 30.6567 56.9038 30.6562H61.4118C61.5612 30.6564 61.7045 30.7158 61.8101 30.8214C61.9158 30.9271 61.9752 31.0703 61.9753 31.2197L61.9767 35.7296Z" fill="#FF8AAE"/>
<path d="M66.6738 58.6228C66.675 60.669 65.8647 62.6322 64.4205 64.0817C62.9764 65.5313 61.0163 66.349 58.9701 66.3554H33.0422C30.9961 66.349 29.036 65.5313 27.5919 64.0817C26.1477 62.6322 25.3374 60.669 25.3386 58.6228V41.9294H36.8193C34.9481 43.7559 33.6638 46.0987 33.1304 48.6585C32.597 51.2184 32.8388 53.8792 33.8248 56.301C34.8108 58.7228 36.4964 60.7957 38.6661 62.255C40.8359 63.7143 43.3914 64.4937 46.0062 64.4937C48.621 64.4937 51.1765 63.7143 53.3463 62.255C55.516 60.7957 57.2016 58.7228 58.1876 56.301C59.1736 53.8792 59.4154 51.2184 58.882 48.6585C58.3486 46.0987 57.0643 43.7559 55.1931 41.9294H66.6738V58.6228Z" fill="#F4ECE9"/>
<path d="M57.2797 51.3236C57.2797 53.5533 56.6185 55.7328 55.3798 57.5867C54.1411 59.4406 52.3804 60.8855 50.3205 61.7387C48.2606 62.592 45.9939 62.8152 43.8071 62.3802C41.6204 61.9453 39.6117 60.8716 38.0351 59.295C36.4585 57.7184 35.3848 55.7097 34.9498 53.5229C34.5149 51.3361 34.7381 49.0695 35.5913 47.0096C36.4446 44.9496 37.8895 43.189 39.7434 41.9503C41.5972 40.7116 43.7768 40.0504 46.0064 40.0504C48.9953 40.0537 51.8608 41.2425 53.9742 43.3559C56.0876 45.4693 57.2764 48.3348 57.2797 51.3236Z" fill="#FF8AAE"/>
<path d="M37.5516 51.3236C37.5516 52.9958 38.0475 54.6304 38.9765 56.0208C39.9056 57.4112 41.226 58.4949 42.7709 59.1348C44.3158 59.7747 46.0158 59.9421 47.6559 59.6159C49.296 59.2897 50.8025 58.4844 51.9849 57.302C53.1673 56.1196 53.9725 54.6131 54.2988 52.973C54.625 51.333 54.4576 49.633 53.8176 48.0881C53.1777 46.5431 52.0941 45.2227 50.7037 44.2937C49.3133 43.3646 47.6786 42.8688 46.0064 42.8688C43.7648 42.8712 41.6157 43.7628 40.0307 45.3478C38.4456 46.9329 37.5541 49.082 37.5516 51.3236Z" fill="#13120F"/>
<path d="M52.5826 51.3254C52.5826 52.6264 52.1968 53.8982 51.474 54.98C50.7512 56.0617 49.7239 56.9048 48.5219 57.4027C47.3199 57.9006 45.9973 58.0309 44.7213 57.777C43.4453 57.5232 42.2732 56.8967 41.3533 55.9768C40.4333 55.0568 39.8068 53.8847 39.553 52.6087C39.2992 51.3327 39.4295 50.0101 39.9273 48.8081C40.4252 47.6062 41.2683 46.5788 42.3501 45.856C43.4318 45.1332 44.7036 44.7474 46.0046 44.7474C47.7488 44.7489 49.421 45.4424 50.6543 46.6757C51.8876 47.909 52.5811 49.5813 52.5826 51.3254Z" fill="#F4ECE9"/>
</g>
<defs>
<clipPath id="clip0_1668_12375">
<rect width="92" height="92" fill="white"/>
</clipPath>
</defs>
</svg>