<svg xmlns:xlink="http://www.w3.org/1999/xlink" xmlns="http://www.w3.org/2000/svg" width="59" height="92" viewBox="0 0 59 92" fill="none">
<path d="M55.8856 16.8562H3.10633C2.90232 16.8559 2.70022 16.8952 2.51163 16.9721C2.32304 17.049 2.15166 17.1619 2.00728 17.3042C1.86289 17.4466 1.74836 17.6157 1.6702 17.8018C1.59205 17.988 1.55182 18.1875 1.55182 18.3891V36.7885H57.4374V18.3996C57.4388 18.1974 57.3997 17.9969 57.3224 17.8098C57.245 17.6226 57.1309 17.4523 56.9866 17.3089C56.8424 17.1654 56.6709 17.0516 56.4819 16.9739C56.2929 16.8962 56.0903 16.8562 55.8856 16.8562ZM37.2579 30.6545H21.734C20.9108 30.6545 20.1214 30.3315 19.5393 29.7566C18.9573 29.1816 18.6303 28.4019 18.6303 27.5888C18.6303 26.7757 18.9573 25.9959 19.5393 25.421C20.1214 24.8461 20.9108 24.5231 21.734 24.5231H37.2579C38.0811 24.5231 38.8705 24.8461 39.4526 25.421C40.0346 25.9959 40.3617 26.7757 40.3617 27.5888C40.3617 28.4019 40.0346 29.1816 39.4526 29.7566C38.8705 30.3315 38.0811 30.6545 37.2579 30.6545Z" fill="#DF6845"/>
<path d="M1.55182 36.7988V88.9315C1.55182 89.3388 1.71559 89.7293 2.00712 90.0173C2.29865 90.3053 2.69405 90.467 3.10633 90.467H55.8856C56.2974 90.4663 56.6921 90.3043 56.9831 90.0164C57.274 89.7285 57.4374 89.3383 57.4374 88.9315V36.7988H1.55182Z" fill="#ECD6C4"/>
<path d="M38.8099 47.5315L21.7341 52.1327V58.2667L38.8099 53.6655V47.5315Z" fill="#DF6845"/>
<path d="M37.4499 16.8667L40.3617 1.53296H31.0479L33.9596 16.8667H37.4499Z" fill="#D1EADC"/>
<path d="M33.9596 16.8667L31.0479 1.53296H18.6303L21.5394 16.8667L22.9953 24.5336L23.2859 26.0665H35.7035L33.9596 16.8667Z" fill="#6EB171"/>
<path d="M18.6277 72.065C20.3418 72.065 21.7314 70.6924 21.7314 68.9993C21.7314 67.3061 20.3418 65.9336 18.6277 65.9336C16.9136 65.9336 15.524 67.3061 15.524 68.9993C15.524 70.6924 16.9136 72.065 18.6277 72.065Z" fill="#DF6845"/>
<path d="M35.7061 67.4639C37.4202 67.4639 38.8098 66.0914 38.8098 64.3982C38.8098 62.7051 37.4202 61.3325 35.7061 61.3325C33.992 61.3325 32.6024 62.7051 32.6024 64.3982C32.6024 66.0914 33.992 67.4639 35.7061 67.4639Z" fill="#DF6845"/>
<path d="M0 18.3995V88.9317C0.000706085 89.7452 0.32822 90.5253 0.910627 91.1005C1.49303 91.6758 2.28274 91.9993 3.10639 92H55.8856C56.709 91.9993 57.4984 91.6757 58.0804 91.1004C58.6624 90.525 58.9893 89.745 58.9893 88.9317V29.1321H55.8856V35.2661H3.10639V18.41H20.2515L21.1368 23.0691C19.96 23.2117 18.8829 23.7934 18.1263 24.695C17.3696 25.5966 16.9907 26.7498 17.067 27.9185C17.1434 29.0871 17.6692 30.1827 18.5369 30.9808C19.4046 31.7788 20.5485 32.2189 21.734 32.2109H37.258C38.4934 32.2109 39.6783 31.7262 40.5519 30.8633C41.4255 30.0004 41.9162 28.8301 41.9162 27.6097C41.9162 26.3894 41.4255 25.2191 40.5519 24.3562C39.6783 23.4933 38.4934 23.0086 37.258 23.0086H36.7007L35.8288 18.41H55.8856V24.544H59V18.3995C58.9993 17.5866 58.6721 16.8072 58.0902 16.2325C57.5083 15.6577 56.7192 15.3345 55.8963 15.3338H39.3218L41.8869 1.81467C41.9293 1.59329 41.9217 1.36539 41.8646 1.14726C41.8075 0.929125 41.7024 0.726133 41.5567 0.552782C41.411 0.379431 41.2283 0.239996 41.0217 0.14444C40.8152 0.0488841 40.5898 -0.000432726 40.3617 4.04434e-06H18.6277C18.3997 -0.000514221 18.1743 0.0487839 17.9678 0.144359C17.7614 0.239935 17.5788 0.379428 17.4333 0.552847C17.2878 0.726265 17.183 0.929322 17.1262 1.14747C17.0695 1.36562 17.0623 1.59345 17.1051 1.81467L19.6702 15.3338H3.10639C2.28321 15.3345 1.4939 15.6576 0.911571 16.2323C0.32924 16.807 0.00141168 17.5864 0 18.3995ZM55.8856 38.3318V88.9317H3.10639V38.3318H55.8856ZM38.8205 27.5992C38.8198 28.0055 38.6561 28.395 38.3652 28.6823C38.0743 28.9696 37.68 29.1314 37.2686 29.1321H21.7447C21.3338 29.1355 20.9384 28.9777 20.6453 28.6932C20.3523 28.4087 20.1857 28.0208 20.1822 27.615C20.1786 27.2092 20.3385 26.8186 20.6265 26.5291C20.9145 26.2397 21.3071 26.0751 21.718 26.0716L21.7713 26.335C21.8379 26.6865 22.0268 27.004 22.3053 27.2324C22.5839 27.4609 22.9345 27.586 23.2966 27.586H35.7168C35.9447 27.5858 36.1699 27.5362 36.3763 27.4406C36.5827 27.345 36.7653 27.2059 36.9113 27.033C37.1309 26.7535 37.2442 26.4067 37.2313 26.0532H37.2686C37.6805 26.0567 38.074 26.2214 38.363 26.5113C38.652 26.8011 38.8127 27.1924 38.8098 27.5992H38.8205ZM36.1754 15.3338H35.2555L32.9277 3.06571H38.5006L36.1754 15.3338ZM29.776 3.06571L33.8503 24.5335H24.5898L20.5155 3.06571H29.776Z" fill="#13120F"/>
<path d="M27.9415 9.19971H24.8377V12.2654H27.9415V9.19971Z" fill="#13120F"/>
<path d="M52.7819 82.8003H6.21011V85.866H52.7819V82.8003Z" fill="#13120F"/>
<path d="M13.9721 69.0047C13.9572 69.618 14.0667 70.2281 14.294 70.799C14.5214 71.3699 14.862 71.8902 15.2959 72.3291C15.7298 72.7681 16.2482 73.1169 16.8206 73.3551C17.393 73.5932 18.0079 73.7159 18.629 73.7159C19.2501 73.7159 19.8649 73.5932 20.4373 73.3551C21.0097 73.1169 21.5281 72.7681 21.962 72.3291C22.3959 71.8902 22.7366 71.3699 22.9639 70.799C23.1913 70.2281 23.3008 69.618 23.2859 69.0047V59.4415L37.2579 55.6778V60.0868C36.3276 59.7636 35.3173 59.7412 34.3733 60.0229C33.4293 60.3047 32.6006 60.8759 32.0071 61.6538C31.4137 62.4318 31.0862 63.3762 31.0723 64.3502C31.0584 65.3242 31.3587 66.2773 31.9297 67.0714C32.5007 67.8656 33.3129 68.4597 34.2485 68.7676C35.1841 69.0755 36.1946 69.0814 37.1337 68.7842C38.0729 68.487 38.892 67.9023 39.4723 67.1147C40.0527 66.3272 40.3641 65.3776 40.3617 64.4035V47.5474C40.362 47.3117 40.3072 47.0791 40.2015 46.8677C40.0958 46.6564 39.9422 46.472 39.7524 46.329C39.5627 46.1859 39.3421 46.0882 39.1078 46.0432C38.8736 45.9983 38.632 46.0074 38.4019 46.0699L21.3367 50.6684C21.0078 50.7565 20.7174 50.9493 20.5106 51.2169C20.3038 51.4845 20.1921 51.8119 20.1928 52.1486V64.6985C19.6954 64.5149 19.1693 64.4186 18.6383 64.414C17.4037 64.4133 16.2193 64.8962 15.3446 65.7567C14.4699 66.6173 13.9763 67.7853 13.9721 69.0047ZM35.7061 65.939C35.3985 65.9395 35.0977 65.8499 34.8417 65.6815C34.5857 65.5131 34.3861 65.2734 34.268 64.9929C34.1499 64.7124 34.1188 64.4036 34.1785 64.1056C34.2382 63.8075 34.386 63.5337 34.6033 63.3187C34.8206 63.1037 35.0976 62.9572 35.3992 62.8977C35.7008 62.8382 36.0135 62.8685 36.2977 62.9846C36.5819 63.1008 36.8249 63.2976 36.9958 63.5502C37.1667 63.8027 37.2579 64.0997 37.2579 64.4035C37.2558 64.8092 37.0916 65.1975 36.801 65.4841C36.5103 65.7707 36.1168 65.9323 35.7061 65.9337V65.939ZM37.2579 49.5464V52.5015L23.2859 56.2652V53.3101L37.2579 49.5464ZM20.1928 69.0047C20.1934 69.3085 20.1027 69.6056 19.9322 69.8585C19.7617 70.1113 19.519 70.3085 19.235 70.4251C18.951 70.5418 18.6384 70.5726 18.3367 70.5136C18.035 70.4547 17.7577 70.3086 17.54 70.094C17.3224 69.8794 17.174 69.6058 17.1138 69.3078C17.0536 69.0099 17.0843 68.701 17.2019 68.4203C17.3194 68.1396 17.5187 67.8996 17.7744 67.7308C18.0301 67.5619 18.3307 67.4718 18.6383 67.4718C19.0483 67.4746 19.4406 67.6372 19.7297 67.9243C20.0189 68.2114 20.1815 68.5997 20.1821 69.0047H20.1928Z" fill="#13120F"/>
<path d="M12.4176 41.4001H9.31387V44.4659H12.4176V41.4001Z" fill="#13120F"/>
<path d="M9.31384 44.4658H6.21011V47.5315H9.31384V44.4658Z" fill="#13120F"/>
<path d="M15.5239 44.4658H12.4202V47.5315H15.5239V44.4658Z" fill="#13120F"/>
<path d="M12.4176 47.5315H9.31387V50.5972H12.4176V47.5315Z" fill="#13120F"/>
<path d="M49.6756 67.4666H46.5718V70.5323H49.6756V67.4666Z" fill="#13120F"/>
<path d="M46.5692 70.5322H43.4655V73.5979H46.5692V70.5322Z" fill="#13120F"/>
<path d="M52.7793 70.5322H49.6756V73.5979H52.7793V70.5322Z" fill="#13120F"/>
<path d="M49.6756 73.6006H46.5718V76.6663H49.6756V73.6006Z" fill="#13120F"/>
</svg>