<svg xmlns:xlink="http://www.w3.org/1999/xlink" xmlns="http://www.w3.org/2000/svg" width="1367" height="765" viewBox="0 0 1367 765" fill="none">
<path d="M56.5 0V0C56.8693 13.375 67.625 24.1307 81 24.5V24.5V24.5C67.625 24.8693 56.8693 35.625 56.5 49V49V49C56.1307 35.625 45.375 24.8693 32 24.5V24.5V24.5C45.375 24.1307 56.1307 13.375 56.5 0V0Z" fill="white"/>
<path d="M1067.5 256V256C1067.87 269.375 1078.62 280.131 1092 280.5V280.5V280.5C1078.62 280.869 1067.87 291.625 1067.5 305V305V305C1067.13 291.625 1056.38 280.869 1043 280.5V280.5V280.5C1056.38 280.131 1067.13 269.375 1067.5 256V256Z" fill="white"/>
<path d="M1342.5 183V183C1342.87 196.375 1353.62 207.131 1367 207.5V207.5V207.5C1353.62 207.869 1342.87 218.625 1342.5 232V232V232C1342.13 218.625 1331.38 207.869 1318 207.5V207.5V207.5C1331.38 207.131 1342.13 196.375 1342.5 183V183Z" fill="white"/>
<path d="M569.5 702V702C569.869 715.375 580.625 726.131 594 726.5V726.5V726.5C580.625 726.869 569.869 737.625 569.5 751V751V751C569.131 737.625 558.375 726.869 545 726.5V726.5V726.5C558.375 726.131 569.131 715.375 569.5 702V702Z" fill="white"/>
<path d="M40.5 247V247C40.7035 254.37 46.6301 260.297 54 260.5V260.5V260.5C46.6301 260.703 40.7035 266.63 40.5 274V274V274C40.2965 266.63 34.3699 260.703 27 260.5V260.5V260.5C34.3699 260.297 40.2965 254.37 40.5 247V247Z" fill="white"/>
<path d="M1246.5 22V22C1246.7 29.3699 1252.63 35.2965 1260 35.5V35.5V35.5C1252.63 35.7035 1246.7 41.6301 1246.5 49V49V49C1246.3 41.6301 1240.37 35.7035 1233 35.5V35.5V35.5C1240.37 35.2965 1246.3 29.3699 1246.5 22V22Z" fill="white"/>
<path d="M630.5 234V234C630.703 241.37 636.63 247.297 644 247.5V247.5V247.5C636.63 247.703 630.703 253.63 630.5 261V261V261C630.297 253.63 624.37 247.703 617 247.5V247.5V247.5C624.37 247.297 630.297 241.37 630.5 234V234Z" fill="white"/>
<path d="M1299.5 722V722C1299.7 729.37 1305.63 735.297 1313 735.5V735.5V735.5C1305.63 735.703 1299.7 741.63 1299.5 749V749V749C1299.3 741.63 1293.37 735.703 1286 735.5V735.5V735.5C1293.37 735.297 1299.3 729.37 1299.5 722V722Z" fill="white"/>
<path d="M939.5 675V675C939.703 682.37 945.63 688.297 953 688.5V688.5V688.5C945.63 688.703 939.703 694.63 939.5 702V702V702C939.297 694.63 933.37 688.703 926 688.5V688.5V688.5C933.37 688.297 939.297 682.37 939.5 675V675Z" fill="white"/>
<path d="M13.5 738V738C13.7035 745.37 19.6301 751.297 27 751.5V751.5V751.5C19.6301 751.703 13.7035 757.63 13.5 765V765V765C13.2965 757.63 7.36991 751.703 0 751.5V751.5V751.5C7.36991 751.297 13.2965 745.37 13.5 738V738Z" fill="white"/>
<path d="M247.5 663V663C247.703 670.37 253.63 676.297 261 676.5V676.5V676.5C253.63 676.703 247.703 682.63 247.5 690V690V690C247.297 682.63 241.37 676.703 234 676.5V676.5V676.5C241.37 676.297 247.297 670.37 247.5 663V663Z" fill="white"/>
</svg>